<?xml version="1.0" encoding="utf-8"?>
<svg xmlns="http://www.w3.org/2000/svg" viewBox="104.5583 62.6506 80.6567 120.108" width="80.6567px" height="120.108px"><defs><linearGradient id="gradient_0" gradientUnits="userSpaceOnUse" x1="636.72351" y1="339.78232" x2="632.44916" y2="337.31726" gradientTransform="matrix(0.195919, 0, 0, 0.195919, 43.2687, 21.8644)"><stop offset="0" stop-color="#FF8641"/><stop offset="1" stop-color="#F7A756"/></linearGradient></defs><g id="object-49" transform="matrix(1, 0, 0, 1, 2.842170943040401e-14, 0)"><path fill="#242041" d="M 154.809 62.654 C 155.579 62.644 156.349 62.654 157.129 62.714 C 161.369 63.034 165.619 65.424 168.349 68.634 C 168.439 68.734 168.519 68.844 168.609 68.944 C 168.689 69.054 168.779 69.154 168.859 69.264 C 168.939 69.374 169.019 69.484 169.099 69.584 C 169.179 69.694 169.259 69.804 169.339 69.924 C 169.409 70.034 169.489 70.144 169.559 70.254 C 169.639 70.364 169.709 70.484 169.779 70.594 C 169.849 70.714 169.919 70.824 169.989 70.944 C 170.059 71.064 170.129 71.174 170.189 71.294 C 170.259 71.414 170.319 71.534 170.379 71.654 C 170.449 71.774 170.509 71.894 170.569 72.014 C 170.629 72.134 170.689 72.254 170.739 72.384 C 170.799 72.504 170.849 72.624 170.909 72.754 C 170.959 72.874 171.009 72.994 171.059 73.124 C 171.119 73.254 171.159 73.374 171.209 73.504 C 171.259 73.624 171.309 73.754 171.349 73.884 C 171.389 74.014 171.439 74.144 171.479 74.264 C 171.519 74.394 171.559 74.524 171.599 74.654 C 171.629 74.784 171.669 74.914 171.709 75.044 C 171.739 75.174 171.769 75.304 171.809 75.444 C 171.839 75.574 171.869 75.704 171.889 75.834 C 171.919 75.964 171.949 76.104 171.969 76.234 C 171.999 76.364 172.019 76.494 172.039 76.634 C 172.069 76.764 172.089 76.904 172.099 77.034 C 172.119 77.164 172.139 77.304 172.159 77.434 C 172.169 77.564 172.179 77.704 172.199 77.834 C 172.209 77.974 172.219 78.104 172.229 78.244 C 172.229 78.374 172.239 78.514 172.249 78.644 C 172.249 78.784 172.249 78.914 172.259 79.054 C 172.259 79.184 172.259 79.324 172.259 79.454 C 172.259 79.594 172.249 79.724 172.249 79.864 C 172.239 79.994 172.239 80.134 172.229 80.264 C 172.219 80.404 172.209 80.534 172.199 80.674 C 171.789 85.284 169.729 88.694 166.219 91.614 C 166.099 93.064 166.179 94.484 166.209 95.934 C 166.909 96.924 167.719 97.944 168.199 99.074 C 168.669 100.174 168.909 101.444 169.549 102.454 C 170.099 103.324 170.869 104.064 171.449 104.914 C 172.139 105.914 172.519 107.114 173.189 108.144 C 174.099 109.544 175.279 110.784 176.159 112.184 C 177.109 113.714 177.759 115.444 178.709 117.004 C 179.639 118.514 180.869 119.864 181.569 121.514 C 182.389 123.464 181.979 124.904 182.439 126.744 C 182.889 128.584 183.859 130.414 184.509 132.214 C 185.479 134.914 185.499 136.904 184.259 139.514 C 183.899 140.274 183.309 141.194 182.469 141.454 C 182.059 141.584 181.759 141.434 181.409 141.254 C 180.809 140.954 180.079 141.134 179.419 141.044 C 179.029 140.824 178.779 140.174 178.569 139.784 C 178.289 139.724 178.009 139.664 177.749 139.544 C 176.039 138.754 178.609 135.874 177.799 133.944 C 177.559 133.374 177.039 132.694 176.439 132.484 C 175.489 132.154 174.449 132.934 173.619 133.294 C 172.899 133.604 171.989 133.914 171.219 133.584 C 170.829 133.414 170.449 133.084 170.309 132.674 C 170.179 132.284 170.289 131.874 170.469 131.524 C 171.009 130.494 171.919 129.974 172.989 129.654 C 173.389 129.154 173.809 128.714 174.279 128.274 C 173.579 127.204 172.579 126.134 171.699 125.184 C 169.069 124.364 166.309 122.694 165.029 120.144 C 164.619 119.334 164.359 118.294 163.759 117.604 C 163.399 117.174 162.909 116.814 162.489 116.444 C 161.409 115.504 160.479 114.544 159.769 113.284 C 159.019 115.494 157.919 117.564 156.869 119.644 C 157.049 121.094 157.139 122.614 157.079 124.074 C 157.029 125.174 156.879 126.274 156.879 127.374 C 156.879 130.204 157.169 133.074 157.279 135.904 C 157.329 137.124 157.229 138.344 157.199 139.564 C 157.159 141.164 157.139 142.774 156.929 144.354 C 156.309 148.834 154.239 153.284 151.159 156.594 C 149.179 158.714 147.719 159.244 144.849 159.334 C 144.189 160.984 142.839 162.694 141.659 164.044 C 140.559 164.164 139.359 164.244 138.329 164.694 C 137.319 165.144 136.549 166.034 135.949 166.934 C 134.649 168.874 134.469 170.284 134.489 172.564 C 134.499 173.144 134.439 173.824 134.529 174.404 C 134.609 174.884 134.859 175.364 134.999 175.824 C 135.339 176.904 135.089 178.234 134.679 179.274 C 134.209 180.464 133.239 182.074 132.009 182.564 C 131.129 182.924 130.199 182.744 129.369 182.354 C 128.179 181.794 127.159 180.864 126.389 179.814 C 124.069 176.674 125.089 175.814 125.149 172.404 C 125.159 171.784 125.129 171.114 124.929 170.524 C 124.579 169.484 122.589 169.254 122.039 167.564 C 121.829 166.914 121.859 166.204 122.009 165.554 C 122.739 162.444 126.079 161.754 127.959 159.614 C 129.339 158.044 130.299 155.894 131.229 154.024 C 131.969 152.924 132.699 152.434 133.879 151.884 C 135.349 149.054 136.499 147.304 138.889 145.174 C 138.859 142.474 139.569 141.424 138.499 138.684 C 138.069 139.954 137.709 141.214 137.149 142.444 C 135.969 145.014 133.679 147.634 131.269 149.124 C 130.429 149.644 129.479 149.944 128.629 150.434 C 127.869 150.874 127.419 151.714 126.619 152.154 C 125.559 152.724 124.289 152.804 123.309 153.534 C 122.289 154.294 121.829 155.654 120.859 156.494 C 120.009 157.244 118.749 157.454 118.099 158.444 C 117.539 159.304 117.339 160.524 117.039 161.504 C 116.349 163.794 114.659 169.504 112.569 170.754 C 111.529 171.384 110.369 171.314 109.229 171.034 C 107.629 170.634 106.119 169.734 105.289 168.264 C 103.399 164.924 106.179 159.414 107.249 156.164 C 107.589 155.104 107.709 153.984 108.009 152.924 C 108.459 151.324 109.209 150.134 110.639 149.254 C 111.209 148.894 111.719 148.584 112.129 148.044 C 114.569 144.814 113.989 142.284 118.119 140.004 C 118.539 138.964 119.029 137.994 119.749 137.124 C 120.849 135.804 121.439 135.644 122.129 133.944 C 122.629 132.724 123.159 131.664 123.009 130.304 C 122.939 129.644 122.829 128.964 122.849 128.304 C 122.869 127.314 123.289 126.374 123.339 125.394 C 123.399 124.344 123.149 123.284 123.219 122.234 C 123.319 120.784 123.759 119.344 123.999 117.914 C 123.049 117.014 122.269 116.354 121.079 115.784 C 120.719 114.344 120.419 113.204 119.539 111.984 C 119.159 112.494 118.819 112.984 118.539 113.544 C 119.009 115.214 120.169 116.764 121.189 118.154 C 121.599 118.704 122.169 119.314 122.379 119.964 C 122.509 120.354 122.429 120.824 122.219 121.174 C 122.079 121.434 121.829 121.684 121.529 121.734 C 120.399 121.894 118.819 119.094 117.959 118.414 C 117.529 118.074 116.999 117.844 116.439 117.924 C 116.299 117.944 116.069 117.984 115.959 118.074 C 115.169 118.634 114.799 121.584 114.009 122.554 C 113.679 122.954 113.189 123.234 112.669 123.254 C 112.289 123.264 111.919 123.154 111.649 122.884 C 111.039 122.264 111.169 120.964 111.149 120.144 C 111.019 120.824 110.939 122.054 110.469 122.564 C 110.249 122.804 109.909 122.954 109.579 122.924 C 108.719 122.834 108.789 121.364 108.429 120.804 C 108.189 121.014 108.009 121.174 107.689 121.244 C 107.379 121.304 107.049 121.324 106.799 121.104 C 106.159 120.564 106.289 119.314 106.149 118.564 C 105.799 118.264 105.369 118.364 104.979 118.164 C 104.749 118.044 104.649 117.874 104.579 117.624 C 104.499 117.294 104.669 116.824 104.779 116.504 C 105.709 113.814 107.619 112.894 109.269 110.854 C 109.909 110.054 110.349 109.064 110.929 108.214 C 110.789 107.994 110.649 107.764 110.539 107.524 C 110.229 106.844 110.209 106.014 110.499 105.334 C 110.849 104.504 111.479 104.134 112.259 103.814 C 112.499 102.744 112.969 101.924 113.489 100.974 C 113.359 100.734 113.249 100.474 113.209 100.204 C 112.999 98.954 114.159 98.674 114.759 97.784 C 114.649 97.564 114.539 97.344 114.429 97.124 C 114.469 96.634 114.609 96.244 114.889 95.824 C 115.639 94.714 117.069 93.394 118.409 93.134 C 119.519 91.434 122.409 89.244 124.299 88.434 C 124.609 86.414 126.229 78.104 127.089 76.524 C 127.969 74.894 130.169 74.414 130.879 72.684 C 131.309 71.654 131.399 70.444 131.629 69.354 C 131.959 67.804 132.639 66.424 134.039 65.564 C 134.779 65.104 135.609 64.844 136.479 64.774 C 138.369 64.614 143.339 65.634 145.389 66.104 C 148.429 64.254 151.169 62.844 154.809 62.654 Z" style="" id="object-0"/><path fill="#FDFEFB" d="M 150.409 138.874 C 151.279 138.814 152.149 138.834 153.019 138.934 C 154.039 139.044 155.399 139.234 156.069 140.084 C 156.389 141.544 156.139 143.594 155.859 145.054 C 155.059 149.264 152.609 154.774 148.929 157.234 C 147.659 158.094 146.139 158.504 144.619 158.204 C 142.689 157.824 141.639 156.814 140.579 155.234 C 141.109 155.724 141.669 156.194 142.279 156.584 C 144.059 157.724 145.789 158.054 147.839 157.594 C 146.339 157.524 145.039 157.184 143.789 156.324 C 141.439 154.684 140.909 152.084 140.439 149.434 C 141.299 151.274 142.129 152.674 143.759 153.934 C 144.109 154.184 144.459 154.414 144.829 154.624 C 146.639 155.654 148.369 155.804 150.369 155.274 C 148.659 155.184 146.899 154.824 145.469 153.844 C 143.289 152.344 142.489 150.034 142.029 147.534 C 144.629 149.194 146.249 149.964 149.379 149.764 C 146.809 148.814 143.769 147.504 142.149 145.204 C 143.729 145.234 145.339 145.404 146.909 145.594 C 146.239 145.304 145.529 145.084 144.869 144.764 C 144.399 144.544 143.679 144.164 143.519 143.634 C 143.379 143.144 143.399 142.574 143.669 142.144 C 144.489 140.844 147.059 140.374 148.459 140.014 C 146.949 139.944 145.439 140.174 143.939 140.344 C 146.039 139.464 148.139 139.024 150.409 138.874 Z" style="" id="object-1"/><path fill="#242041" d="M 154.199 141.084 C 154.329 141.084 154.449 141.084 154.569 141.084 C 154.809 141.094 154.979 141.174 155.119 141.364 C 155.259 141.554 155.289 141.784 155.259 142.014 C 155.189 142.504 154.949 142.814 154.559 143.104 C 154.159 142.974 153.739 142.744 153.549 142.354 C 153.439 142.114 153.419 141.894 153.509 141.644 C 153.619 141.344 153.939 141.224 154.199 141.084 Z" style="" id="object-2"/><path fill="#FDFEFB" d="M 153.809 141.754 C 154.069 141.744 154.219 141.764 154.459 141.874 C 154.569 142.154 154.509 142.284 154.459 142.584 C 154.319 142.544 154.159 142.484 154.049 142.404 C 153.829 142.254 153.829 141.984 153.809 141.754 Z" style="" id="object-3"/><path fill="#FDFEFB" d="M 140.149 104.594 C 139.159 106.244 138.149 107.964 136.449 108.994 C 136.119 109.204 135.889 109.274 135.509 109.184 C 134.549 107.664 138.029 105.434 138.929 104.604 C 139.669 103.924 140.389 103.194 140.989 102.394 C 142.049 101.014 142.729 99.364 143.059 97.664 C 143.919 93.244 143.009 90.154 140.569 86.514 C 141.329 87.204 141.979 88.024 142.669 88.784 C 144.839 91.174 146.999 93.214 149.939 94.654 C 153.659 96.474 158.689 97.374 162.709 95.974 C 162.909 95.904 163.069 95.874 163.279 95.844 C 163.559 96.154 163.489 97.054 163.499 97.474 C 163.359 100.884 162.609 104.154 161.529 107.374 C 161.279 108.014 159.949 111.444 159.549 111.764 C 159.519 111.884 159.499 111.834 159.539 111.904 L 159.499 111.814 C 159.979 109.224 161.649 105.984 161.899 103.524 C 161.939 103.104 161.899 102.624 161.649 102.264 C 161.399 101.904 160.999 101.714 160.609 101.534 C 157.819 100.244 154.739 99.414 151.839 98.414 C 150.459 97.934 148.979 97.174 147.529 96.984 C 146.939 96.914 146.379 96.964 145.909 97.364 C 145.489 97.734 145.189 98.224 144.959 98.724 C 144.129 100.534 142.199 107.014 142.119 108.894 C 142.049 110.434 143.449 110.604 143.299 111.744 C 142.369 114.134 140.929 116.254 140.669 118.864 C 140.189 117.984 139.729 117.244 139.049 116.524 C 138.879 115.164 139.089 113.834 139.019 112.474 C 138.779 112.804 138.959 113.644 138.749 114.074 L 138.579 113.734 L 138.509 113.764 C 138.409 114.104 138.809 115.884 138.879 116.334 C 137.379 113.534 137.149 113.644 134.569 111.924 C 135.279 112.094 135.969 112.334 136.669 112.554 C 138.059 111.444 138.779 109.714 139.539 108.164 C 138.549 109.104 137.759 110.184 136.689 111.064 C 137.899 108.834 139.719 107.204 140.149 104.594 Z" style="" id="object-4"/><path d="M 144.089 91.574 C 144.639 93.064 144.739 94.804 144.159 96.294 L 144.079 96.374 C 144.029 96.314 144.099 92.044 144.089 91.574 Z" style="" id="object-5"/><path fill="#FDFEFB" d="M 165.139 96.264 C 165.379 96.514 165.589 96.784 165.799 97.064 C 165.999 97.344 166.189 97.634 166.359 97.934 C 166.529 98.234 166.689 98.544 166.819 98.864 C 166.959 99.174 167.079 99.504 167.179 99.834 C 166.189 101.034 164.729 101.804 163.569 102.834 C 163.899 102.684 164.229 102.514 164.549 102.344 C 164.879 102.164 165.189 101.974 165.499 101.774 C 165.809 101.574 166.109 101.364 166.409 101.144 C 166.699 100.924 166.979 100.694 167.259 100.444 C 168.379 102.854 169.179 103.214 170.529 105.184 C 171.189 106.144 171.519 107.284 172.149 108.264 C 173.149 109.814 174.419 111.204 175.429 112.744 C 176.059 113.694 176.509 114.814 177.059 115.824 C 177.869 117.304 178.769 118.714 179.699 120.124 C 178.269 119.474 176.819 118.974 175.259 119.584 C 174.469 119.904 173.839 120.424 173.179 120.944 C 172.759 120.844 172.339 120.764 171.929 120.654 C 173.559 118.624 174.299 118.404 176.669 117.684 C 174.289 117.834 173.579 118.124 171.979 119.894 C 171.819 120.074 171.509 120.554 171.249 120.474 C 171.149 120.444 171.069 120.374 170.979 120.314 C 170.549 119.674 170.889 118.794 171.029 118.094 L 171.109 117.674 C 170.849 118.214 170.599 119.004 170.159 119.404 L 170.029 119.334 C 169.999 118.514 170.469 117.854 170.999 117.274 C 172.259 115.874 174.019 115.154 175.699 114.404 C 173.179 113.854 171.089 114.394 168.929 115.784 C 168.409 116.114 167.949 116.494 167.479 116.904 C 167.669 116.024 167.909 115.144 168.059 114.264 L 167.959 114.374 C 167.459 114.934 167.129 115.744 166.599 116.224 C 166.419 116.024 166.389 115.754 166.409 115.484 C 166.529 113.914 167.929 112.324 169.119 111.394 C 169.979 110.714 171.059 110.184 171.999 109.624 C 168.939 110.544 168.169 110.544 165.459 112.384 C 165.299 112.494 165.399 112.474 165.179 112.394 C 164.969 111.954 164.989 111.284 165.149 110.824 C 165.609 109.474 166.889 108.454 167.979 107.624 C 166.159 108.214 164.689 109.824 163.819 111.474 L 163.669 111.544 C 163.489 111.404 163.459 111.264 163.419 111.044 C 163.219 109.734 163.779 108.684 164.579 107.694 C 165.869 106.114 167.819 105.234 169.109 103.694 C 167.419 104.874 165.759 105.874 164.189 107.244 C 164.699 106.564 165.229 105.924 165.869 105.364 C 166.289 104.994 167.459 104.404 167.679 103.964 C 166.559 104.164 162.479 107.624 161.419 108.564 L 161.979 107.314 C 162.839 106.104 163.669 104.874 164.559 103.674 C 163.769 104.334 163.179 105.034 162.569 105.864 C 163.029 103.334 163.859 100.924 164.499 98.434 L 165.139 96.264 Z" style="" id="object-6"/><path fill="#FDFEFB" d="M 133.339 85.354 C 133.409 85.354 133.469 85.354 133.529 85.374 C 135.189 85.824 136.879 87.764 137.589 89.264 C 138.569 91.374 138.809 93.834 137.979 96.044 C 137.299 97.854 135.219 100.124 133.439 100.864 C 133.229 100.954 133.199 100.984 132.989 100.904 C 132.999 100.154 134.729 98.154 135.179 97.354 C 135.639 96.524 136.029 95.654 136.359 94.754 C 135.349 95.974 134.669 97.514 133.479 98.564 C 133.919 97.774 134.419 97.024 134.899 96.274 C 133.079 98.014 131.469 99.754 129.399 101.234 L 129.439 101.064 C 129.899 98.734 129.159 97.674 127.909 95.804 C 128.059 96.194 128.199 96.604 128.309 97.004 C 128.809 98.844 128.299 100.354 127.379 101.924 C 127.439 101.304 127.469 100.714 127.409 100.094 C 127.349 99.804 127.269 99.524 127.179 99.244 C 127.079 98.964 126.979 98.694 126.859 98.424 C 126.749 98.144 126.619 97.884 126.479 97.624 C 126.349 97.364 126.199 97.104 126.039 96.864 C 124.929 95.154 122.879 93.034 120.809 92.604 C 121.139 92.314 121.699 92.064 121.789 91.634 C 121.419 91.714 121.009 92.254 120.669 92.464 C 120.679 92.234 120.799 92.114 120.949 91.954 C 121.239 91.664 122.019 90.914 122.419 90.924 C 123.679 90.984 125.739 92.814 126.519 93.754 C 126.869 94.184 127.099 94.694 127.469 95.124 L 127.489 94.984 C 127.059 93.764 125.449 92.004 124.389 91.264 C 123.919 90.934 123.349 90.704 122.839 90.454 C 123.469 89.974 124.189 89.594 124.869 89.204 C 126.779 90.174 127.859 91.864 129.359 93.294 L 129.449 93.374 C 130.159 92.854 130.909 92.364 131.679 91.934 C 132.189 91.644 134.419 90.694 134.659 90.364 C 134.689 90.304 134.709 90.244 134.729 90.174 C 134.459 88.924 132.499 86.804 131.449 86.014 C 132.079 85.754 132.689 85.514 133.339 85.354 Z" style="" id="object-7"/><path fill="#FDFEFB" d="M 149.829 98.624 C 153.509 100.184 157.429 101.064 161.069 102.704 C 160.809 105.554 159.279 108.894 158.159 111.534 C 156.989 111.484 147.619 108.484 146.989 107.794 C 146.889 106.474 149.229 100.174 149.829 98.624 Z" style="" id="object-8"/><path d="M 150.479 102.984 C 150.689 102.954 150.899 102.954 151.119 102.984 C 151.909 103.104 152.939 103.514 153.389 104.204 C 153.559 104.474 153.629 104.764 153.549 105.084 C 153.429 105.594 152.939 105.914 152.509 106.154 C 152.259 106.194 152.029 106.204 151.759 106.174 C 151.029 106.094 150.179 105.814 149.709 105.204 C 149.499 104.914 149.389 104.554 149.459 104.194 C 149.589 103.614 149.999 103.284 150.479 102.984 Z" style="" id="object-9"/><path fill="#D2C73E" d="M 150.739 103.264 C 150.919 103.294 151.099 103.314 151.269 103.364 C 151.879 103.524 152.999 104.034 153.239 104.674 C 153.289 104.814 153.309 104.984 153.249 105.124 C 153.099 105.474 152.789 105.634 152.459 105.774 C 151.599 105.664 150.679 105.464 150.009 104.864 C 149.769 104.654 149.719 104.474 149.699 104.154 C 149.899 103.674 150.269 103.464 150.739 103.264 Z" style="" id="object-10"/><path fill="#D2C73E" d="M 154.259 106.564 C 154.259 106.214 154.229 105.794 154.409 105.484 C 154.559 105.214 154.769 105.094 155.059 105.044 C 155.749 104.924 156.669 105.454 157.229 105.814 C 157.429 106.134 157.569 106.494 157.429 106.864 C 157.329 107.134 157.059 107.284 156.799 107.354 C 156.169 107.524 155.379 107.364 154.819 107.034 C 154.599 106.904 154.429 106.754 154.259 106.564 Z" style="" id="object-11"/><path fill="#242041" d="M 154.259 106.564 L 154.389 105.934 C 154.639 106.384 155.069 106.834 155.539 107.044 C 155.819 107.174 156.079 107.174 156.359 107.054 C 156.639 106.934 156.889 106.674 156.979 106.384 C 157.029 106.234 157.069 106.104 157.149 105.964 L 157.229 105.814 C 157.429 106.134 157.569 106.494 157.429 106.864 C 157.329 107.134 157.059 107.284 156.799 107.354 C 156.169 107.524 155.379 107.364 154.819 107.034 C 154.599 106.904 154.429 106.754 154.259 106.564 Z" style="" id="object-12"/><path fill="#FDFEFB" d="M 128.689 130.924 C 129.989 130.844 131.389 131.074 132.649 131.394 C 134.729 131.924 137.249 133.164 138.379 135.064 C 138.429 135.994 138.249 136.644 137.959 137.514 L 137.989 137.194 C 137.469 139.184 136.969 141.054 135.929 142.844 C 135.579 143.464 135.069 144.234 134.329 144.394 C 133.929 144.484 133.529 144.364 133.149 144.254 C 130.879 143.594 130.489 142.054 128.769 140.964 C 128.739 140.944 128.709 140.924 128.679 140.904 C 129.069 141.484 129.379 142.084 129.679 142.714 C 129.339 142.284 128.999 141.814 128.569 141.464 L 128.519 141.554 C 128.639 141.844 128.759 142.144 128.869 142.434 L 128.839 142.494 C 128.409 142.024 128.129 141.464 127.669 141.024 L 127.609 141.034 C 127.899 141.524 128.159 142.014 128.409 142.534 C 127.839 142.004 127.379 141.404 126.909 140.804 L 126.819 140.834 C 126.909 141.054 126.979 141.274 127.049 141.494 C 126.689 141.084 126.479 140.594 126.159 140.154 L 126.039 140.004 C 125.379 139.344 125.179 138.644 124.959 137.774 C 125.639 138.404 126.309 138.924 127.139 139.364 C 126.499 138.784 125.399 137.834 125.119 137.024 L 125.229 136.934 C 125.909 136.984 126.659 137.404 127.339 137.594 C 126.839 137.154 125.889 136.464 125.779 135.764 C 125.739 135.524 125.759 135.354 125.919 135.164 C 126.409 134.584 127.859 134.554 128.579 134.454 C 127.979 134.274 127.419 134.054 126.849 133.794 C 127.729 133.444 128.559 133.184 129.519 133.134 C 131.899 133.014 134.439 133.844 136.269 135.374 C 136.819 135.844 137.249 136.424 137.789 136.904 C 137.819 136.934 137.879 136.954 137.889 137.004 L 137.789 136.704 L 137.889 136.854 C 137.759 136.344 137.519 136.044 137.149 135.684 C 134.549 133.144 131.129 132.404 127.619 132.474 C 127.899 131.894 128.139 131.294 128.689 130.924 Z" style="" id="object-13"/><path fill="#FDFEFB" d="M 132.209 115.234 C 132.579 115.214 132.939 115.224 133.309 115.294 C 135.319 115.664 136.959 117.244 138.089 118.854 C 140.089 121.694 141.029 126.244 140.319 129.654 C 140.249 129.954 140.169 130.114 139.909 130.274 C 139.489 130.004 139.139 129.584 138.759 129.254 C 136.199 127.004 132.209 125.944 128.859 126.134 C 128.879 125.824 128.879 125.514 128.899 125.214 C 128.919 125.004 128.969 124.794 129.139 124.674 C 130.159 123.944 133.279 124.574 134.509 124.844 C 133.199 124.104 131.859 123.944 130.479 123.434 C 130.029 123.264 129.639 123.024 129.469 122.544 C 129.389 122.334 129.359 122.144 129.489 121.944 C 129.679 121.624 130.119 121.484 130.459 121.414 C 132.259 121.084 134.379 122.354 135.779 123.344 C 138.109 125.094 138.889 126.734 140.059 129.324 C 140.039 129.244 140.029 129.154 139.999 129.074 C 139.249 126.124 136.789 123.184 134.289 121.514 C 133.469 120.964 132.509 120.624 131.679 120.094 C 131.189 119.784 130.309 119.114 130.269 118.464 C 130.249 118.224 130.329 118.034 130.509 117.864 C 130.839 117.564 131.419 117.544 131.839 117.584 C 134.109 117.834 136.869 119.844 138.119 121.704 C 138.579 122.394 138.819 123.314 139.339 123.934 C 139.039 121.474 135.949 118.504 134.059 117.114 C 133.639 116.804 132.329 116.084 132.059 115.764 C 132.009 115.714 132.019 115.624 132.009 115.564 L 132.209 115.234 Z" style="" id="object-14"/><path fill="#FDFEFB" d="M 118.339 94.464 C 118.559 94.454 118.779 94.444 118.999 94.434 C 120.779 94.384 122.289 95.174 123.549 96.394 C 124.669 97.484 125.809 99.264 125.779 100.874 C 125.759 101.824 125.339 102.484 124.679 103.124 C 124.679 102.184 124.709 101.414 124.299 100.534 C 124.119 100.874 124.539 102.464 124.449 103.014 C 124.369 103.574 124.089 104.064 123.819 104.554 C 122.749 102.494 121.759 101.034 119.589 100.054 C 119.839 100.234 120.079 100.424 120.319 100.614 C 121.439 101.534 122.629 103.274 122.719 104.744 C 122.779 105.684 122.369 106.264 121.769 106.924 C 120.819 105.534 119.779 104.764 118.259 104.044 C 116.569 103.364 115.099 103.214 113.289 103.304 C 113.469 103.114 113.639 102.924 113.779 102.704 C 113.909 102.504 114.019 102.304 114.179 102.134 C 115.149 101.074 116.629 101.204 117.939 101.164 L 117.339 101.004 C 116.549 100.784 115.779 100.714 114.969 100.634 L 114.879 100.534 C 115.039 99.974 115.739 99.574 116.099 99.104 C 115.929 99.014 115.509 99.284 115.259 99.294 C 115.449 98.824 115.979 98.614 116.409 98.394 C 117.439 98.434 118.469 98.674 119.489 98.854 C 118.849 98.384 118.189 97.954 117.459 97.644 C 117.029 97.454 116.289 97.374 115.969 97.054 C 116.009 96.974 116.009 96.954 116.079 96.884 C 116.609 96.334 117.889 96.054 118.609 96.074 C 120.589 96.144 122.009 97.404 123.309 98.754 C 121.619 95.964 120.339 95.884 117.429 95.024 L 117.419 94.914 C 117.699 94.694 118.009 94.594 118.339 94.464 Z" style="" id="object-15"/><path fill="#FDFEFB" d="M 151.249 113.824 C 152.119 114.214 153.099 114.564 154.019 114.824 C 155.739 115.304 156.849 115.054 158.379 114.194 C 157.739 115.524 157.149 116.894 156.409 118.174 C 154.039 122.314 150.009 127.024 145.289 128.324 C 146.999 126.984 148.199 125.404 149.439 123.654 C 150.319 122.284 151.169 120.884 151.919 119.434 L 151.869 119.344 C 151.429 119.814 151.049 120.564 150.669 121.104 C 148.569 124.024 147.099 126.094 143.689 127.744 C 144.779 125.764 146.039 123.864 147.139 121.884 C 148.599 119.254 149.899 116.504 151.249 113.824 Z" style="" id="object-16"/><path fill="#FDFEFB" d="M 143.299 111.744 C 143.409 111.514 143.429 111.304 143.669 111.214 C 144.749 111.594 145.799 112.054 146.879 112.404 L 146.289 114.204 L 146.459 114.364 C 146.659 113.734 146.839 113.094 147.089 112.494 C 147.959 112.794 148.869 113.064 149.709 113.414 C 148.069 118.604 145.779 122.834 142.369 127.084 C 142.449 126.024 142.429 124.884 142.639 123.854 C 142.449 123.804 142.329 123.744 142.159 123.654 C 141.899 123.234 141.919 122.394 141.799 121.904 C 140.949 118.474 141.399 117.554 142.599 114.314 C 142.899 113.514 143.199 112.704 143.289 111.844 C 143.289 111.814 143.299 111.784 143.299 111.744 Z" style="" id="object-17"/><path fill="#FDFEFB" d="M 147.089 112.494 C 147.959 112.794 148.869 113.064 149.709 113.414 C 148.069 118.604 145.779 122.834 142.369 127.084 C 142.449 126.024 142.429 124.884 142.639 123.854 C 143.149 122.024 144.039 120.384 144.799 118.654 C 145.419 117.254 145.939 115.804 146.459 114.364 C 146.659 113.734 146.839 113.094 147.089 112.494 Z" style="" id="object-18"/><path d="M 146.289 114.204 L 146.459 114.364 C 145.939 115.804 145.419 117.254 144.799 118.654 C 144.039 120.384 143.149 122.024 142.639 123.854 C 142.449 123.804 142.329 123.744 142.159 123.654 C 143.569 120.484 145.149 117.494 146.289 114.204 Z" style="" id="object-19"/><path fill="#FDFEFB" d="M 154.329 125.284 C 154.429 125.274 154.499 125.264 154.599 125.284 C 155.059 125.344 155.459 125.664 155.689 126.064 C 155.799 126.274 155.849 126.394 155.789 126.624 C 154.719 126.874 153.699 127.384 152.699 127.824 C 152.729 127.824 152.769 127.824 152.809 127.824 L 153.009 127.814 C 153.869 127.804 155.129 127.254 155.909 127.444 C 156.259 128.074 156.299 134.944 156.329 135.954 C 155.839 135.624 155.439 135.224 154.889 134.974 C 154.839 134.954 154.789 134.924 154.729 134.904 C 154.009 134.584 153.239 134.424 152.469 134.244 C 151.919 133.654 151.419 133.534 150.659 133.324 C 151.229 133.604 151.769 133.914 152.309 134.234 C 148.819 133.964 146.189 134.614 142.889 135.624 C 143.149 135.104 143.409 134.584 143.679 134.064 C 144.069 133.564 144.639 133.124 145.099 132.684 L 143.639 133.034 C 146.709 131.034 150.319 131.964 153.369 130.344 C 150.259 130.704 147.139 131.104 144.049 131.614 C 146.059 130.494 148.329 129.764 150.259 128.524 C 151.699 127.604 152.809 126.284 154.219 125.354 C 154.259 125.324 154.299 125.304 154.329 125.284 Z" style="" id="object-20"/><path fill="#FDFEFB" d="M 156.199 64.524 C 156.549 64.494 156.909 64.484 157.259 64.494 C 157.609 64.494 157.969 64.514 158.319 64.544 C 158.669 64.574 159.019 64.614 159.369 64.674 C 159.719 64.734 160.059 64.804 160.409 64.884 C 163.329 65.604 165.419 67.494 166.939 70.024 C 164.119 67.984 160.739 67.664 157.369 67.814 C 155.769 68.054 154.029 68.404 152.549 69.094 C 151.539 69.564 150.419 70.364 149.329 70.594 C 148.939 70.674 148.569 70.624 148.249 70.384 C 147.889 70.114 147.689 69.654 147.629 69.214 C 147.549 68.664 147.679 68.174 148.039 67.744 C 149.809 65.594 153.579 64.754 156.199 64.524 Z" style="" id="object-21"/><path fill="#F67F44" d="M 111.979 109.054 C 113.549 109.064 114.989 109.214 116.439 109.814 C 116.889 109.994 117.279 110.164 117.479 110.624 C 117.339 110.864 117.189 111.114 117.139 111.384 C 116.819 112.964 117.699 114.414 118.549 115.644 C 119.179 116.514 119.779 117.414 120.439 118.264 C 120.829 118.774 121.339 119.254 121.689 119.794 C 121.849 120.024 121.879 120.174 121.849 120.454 L 121.719 120.584 C 120.999 120.134 118.929 117.074 118.029 116.164 C 117.929 116.064 117.969 116.114 117.909 115.994 C 117.749 115.934 117.589 115.864 117.419 115.814 C 116.869 115.624 116.269 115.494 115.729 115.794 C 114.839 116.294 114.609 118.164 114.369 119.074 C 114.079 118.944 113.799 118.794 113.519 118.654 C 113.629 118.164 113.779 117.604 113.789 117.094 C 113.789 116.744 113.659 116.194 113.369 115.974 C 113.199 115.844 113.009 115.804 112.799 115.864 C 111.969 116.094 111.699 117.354 111.399 118.024 L 111.259 118.064 C 111.029 117.444 112.039 116.424 111.639 115.684 C 111.439 115.304 111.039 115.174 110.669 115.044 L 110.529 114.984 C 110.219 114.054 109.329 113.774 108.879 112.934 C 109.349 112.744 109.779 113.534 110.189 113.474 C 110.089 113.124 109.949 112.984 109.669 112.744 C 109.539 112.624 109.589 112.704 109.539 112.514 C 110.029 112.574 110.339 113.104 110.809 113.234 C 110.589 112.824 110.219 112.464 109.899 112.134 C 110.289 112.364 110.679 112.594 111.099 112.774 L 111.209 112.724 C 110.859 112.304 110.269 111.934 109.839 111.594 C 110.359 111.804 110.869 112.004 111.409 112.174 L 111.449 112.104 C 111.209 111.704 110.699 111.734 110.489 111.254 L 110.619 111.094 C 110.989 111.084 110.749 111.264 111.059 111.364 L 110.929 111.064 C 111.299 110.944 111.259 111.274 111.479 111.254 C 111.619 111.254 111.539 111.114 111.789 111.144 C 111.769 111.314 111.749 111.484 111.729 111.654 L 111.789 111.664 C 112.009 111.494 112.009 111.514 112.049 111.244 C 111.829 110.764 111.299 110.434 110.889 110.114 C 111.589 110.354 112.259 110.684 112.939 110.974 C 112.529 110.354 111.979 109.794 111.499 109.214 C 112.229 109.534 112.959 109.844 113.709 110.094 C 113.199 109.584 112.639 109.334 111.979 109.054 Z" style="" id="object-22"/><path fill="#FDFEFB" d="M 135.729 84.794 C 136.129 84.734 136.559 84.684 136.959 84.804 C 138.589 85.304 140.209 87.634 140.959 89.104 C 142.459 92.054 142.889 95.704 141.819 98.874 C 140.919 101.544 138.749 103.774 136.249 105.024 C 136.819 104.254 137.539 103.574 138.159 102.844 C 139.369 101.404 140.179 99.724 140.889 97.994 C 141.209 97.094 141.449 96.234 141.629 95.294 L 141.519 95.184 L 141.549 95.134 L 141.609 95.214 L 141.589 95.094 C 141.579 95.124 141.569 95.144 141.559 95.174 C 141.369 95.754 141.139 96.434 140.799 96.954 C 140.689 97.104 140.749 97.074 140.639 97.104 C 140.809 96.594 141.019 96.104 141.229 95.604 C 140.889 96.044 140.619 96.554 140.289 97.014 C 139.149 98.614 137.909 99.924 136.259 101.004 C 137.009 99.444 138.169 98.114 138.779 96.474 C 139.629 94.184 139.359 91.464 138.339 89.274 C 137.349 87.134 135.979 85.934 133.789 85.144 C 134.439 84.974 135.069 84.874 135.729 84.794 Z" style="" id="object-23"/><path fill="#FDFEFB" d="M 132.429 163.484 C 133.719 164.134 134.939 164.514 136.359 164.744 C 134.819 166.894 133.219 168.984 133.409 171.784 C 133.459 172.464 133.769 173.474 133.649 174.104 C 133.639 174.154 133.629 174.194 133.619 174.234 C 132.319 174.764 130.779 174.474 129.509 173.984 C 129.249 172.714 129.289 171.134 129.439 169.854 C 129.719 167.444 130.479 165.034 132.429 163.484 Z" style="" id="object-24"/><path fill="#242041" d="M 130.529 168.724 C 131.209 168.694 132.169 168.634 132.779 168.924 C 133.029 169.044 133.179 169.254 133.269 169.504 L 133.159 169.504 C 132.449 169.324 130.859 169.354 130.339 168.894 L 130.529 168.724 Z" style="" id="object-25"/><path fill="#F67F44" d="M 175.169 128.944 C 175.749 128.674 176.499 128.394 176.979 127.994 L 176.899 127.924 C 176.589 127.974 176.309 128.084 176.019 127.964 C 176.119 127.584 176.519 127.254 176.849 127.064 C 177.679 126.584 179.009 126.384 179.919 126.644 C 180.789 126.904 181.349 127.584 181.749 128.364 C 182.579 129.994 183.079 131.874 183.599 133.634 L 183.119 133.964 C 183.119 133.984 183.109 134.004 183.099 134.024 C 182.979 134.914 182.749 135.694 182.319 136.504 C 182.089 136.954 181.599 137.764 181.109 137.904 L 181.329 137.664 L 181.279 137.644 C 181.439 137.394 181.599 137.134 181.729 136.864 C 182.429 135.384 182.119 133.784 181.579 132.314 C 181.499 132.854 181.439 133.394 181.319 133.924 C 181.089 134.854 180.629 136.384 179.779 136.914 C 179.529 136.934 179.489 136.934 179.269 136.824 C 179.259 136.314 179.819 135.354 180.009 134.824 C 179.849 134.394 179.689 133.964 179.519 133.544 C 179.059 132.454 178.499 131.894 177.419 131.454 C 177.959 131.014 178.439 130.584 178.889 130.054 C 178.039 130.254 177.299 130.584 176.509 130.944 C 176.419 130.844 176.309 130.764 176.199 130.674 C 176.169 130.134 176.059 129.734 175.659 129.344 C 175.499 129.204 175.339 129.074 175.169 128.944 Z" style="" id="object-26"/><path fill="#BDEDDF" d="M 162.499 72.134 C 164.169 72.104 165.929 72.954 167.149 74.064 C 168.379 75.184 169.049 76.444 169.129 78.124 C 169.209 79.874 168.909 82.784 167.669 84.124 C 167.539 82.604 167.279 81.154 166.779 79.714 C 166.709 79.534 166.639 79.344 166.569 79.164 C 166.499 78.974 166.419 78.794 166.329 78.614 C 166.249 78.434 166.159 78.264 166.069 78.084 C 165.979 77.914 165.879 77.744 165.779 77.574 C 165.679 77.404 165.579 77.234 165.469 77.064 C 165.359 76.904 165.249 76.744 165.129 76.584 C 165.009 76.424 164.899 76.264 164.769 76.114 C 164.649 75.964 164.519 75.814 164.389 75.664 C 164.249 75.514 164.119 75.374 163.979 75.234 C 163.839 75.094 163.699 74.954 163.549 74.824 C 163.409 74.694 163.259 74.564 163.099 74.434 C 162.949 74.314 162.799 74.184 162.639 74.074 C 162.479 73.954 162.319 73.844 162.159 73.734 C 161.989 73.624 161.819 73.514 161.659 73.414 C 161.489 73.314 161.309 73.214 161.139 73.124 C 160.969 73.034 160.789 72.934 160.609 72.854 C 161.229 72.544 161.819 72.304 162.499 72.134 Z" style="" id="object-27"/><path fill="#F67F44" d="M 127.569 127.494 C 128.129 127.104 131.379 127.324 132.109 127.464 C 134.629 127.924 137.769 129.104 139.309 131.294 C 139.419 131.444 139.519 131.604 139.619 131.764 C 139.489 132.584 139.319 133.364 139.079 134.154 C 137.289 131.724 134.459 130.394 131.529 129.934 C 130.469 129.774 129.349 129.844 128.319 129.654 C 127.749 129.724 127.249 129.864 126.699 130.044 C 126.879 129.104 127.099 128.344 127.569 127.494 Z" style="" id="object-28"/><path fill="#F67F44" d="M 150.109 135.244 C 150.449 135.204 150.829 135.204 151.169 135.214 C 152.819 135.264 154.959 135.744 156.119 136.974 C 156.149 137.564 156.119 138.164 156.109 138.754 C 155.969 138.664 155.819 138.584 155.659 138.504 C 152.379 136.834 147.229 137.724 143.879 138.794 C 142.709 139.264 141.559 139.734 140.459 140.344 C 140.879 139.894 141.779 139.534 142.039 139.054 L 141.859 138.894 C 141.799 138.554 143.339 138.474 143.569 138.094 C 143.339 138.044 143.119 138.174 142.899 138.244 C 142.699 138.304 141.869 138.604 141.719 138.494 C 141.569 138.374 141.629 138.264 141.389 138.144 L 141.389 138.024 C 142.809 136.394 148.009 135.434 150.109 135.244 Z" style="" id="object-29"/><path fill="#FDFEFB" d="M 124.159 140.924 C 124.759 141.174 125.249 142.064 125.699 142.534 C 126.559 143.444 127.539 144.364 128.659 144.924 C 130.459 145.814 132.399 145.754 134.259 145.124 C 133.109 146.544 131.549 147.924 129.819 148.564 C 128.119 149.204 126.439 149.004 124.809 148.254 C 124.759 148.224 124.709 148.194 124.659 148.164 C 123.339 147.354 122.849 145.974 122.489 144.554 C 124.389 146.494 126.749 148.294 129.549 148.384 C 129.269 148.274 128.999 148.144 128.729 148.014 C 128.459 147.874 128.199 147.724 127.949 147.554 C 127.699 147.394 127.449 147.214 127.219 147.024 C 126.979 146.834 126.759 146.634 126.539 146.424 C 125.189 145.064 124.159 142.854 124.159 140.924 Z" style="" id="object-30"/><path fill="#F67F44" d="M 145.879 78.754 C 146.299 75.874 147.759 73.604 150.109 71.864 C 150.209 71.784 150.309 71.714 150.409 71.644 C 150.509 71.564 150.619 71.494 150.719 71.424 C 150.819 71.354 150.929 71.294 151.029 71.224 C 151.139 71.154 151.249 71.094 151.349 71.024 C 151.459 70.964 151.569 70.894 151.679 70.834 C 151.779 70.774 151.899 70.714 151.999 70.654 C 152.119 70.594 152.229 70.534 152.339 70.484 C 152.449 70.424 152.559 70.374 152.679 70.314 C 152.789 70.264 152.899 70.214 153.019 70.164 C 153.129 70.114 153.249 70.064 153.359 70.014 C 153.479 69.964 153.589 69.924 153.709 69.874 C 153.829 69.834 153.939 69.784 154.059 69.744 C 154.179 69.704 154.299 69.664 154.419 69.624 C 154.539 69.584 154.659 69.554 154.779 69.514 C 154.899 69.484 155.019 69.444 155.139 69.414 C 155.259 69.384 155.379 69.354 155.499 69.324 C 155.619 69.294 155.739 69.264 155.869 69.234 C 155.989 69.214 156.109 69.184 156.229 69.164 C 156.359 69.134 156.479 69.114 156.599 69.094 C 156.729 69.074 156.849 69.054 156.969 69.034 C 157.099 69.024 157.219 69.004 157.349 68.994 C 157.469 68.974 157.589 68.964 157.719 68.954 C 157.839 68.944 157.969 68.934 158.089 68.924 C 158.219 68.914 158.339 68.914 158.469 68.904 C 158.589 68.904 158.719 68.904 158.839 68.894 C 158.969 68.894 159.089 68.894 159.219 68.894 C 159.339 68.904 159.469 68.904 159.589 68.904 C 159.719 68.914 159.839 68.914 159.969 68.924 C 160.089 68.934 160.219 68.944 160.339 68.954 C 160.469 68.964 160.589 68.974 160.719 68.994 C 160.839 69.004 160.959 69.024 161.089 69.034 C 161.209 69.054 161.339 69.074 161.459 69.094 C 164.509 69.574 167.319 71.104 169.129 73.644 C 170.799 75.984 171.459 79.414 170.959 82.224 C 170.859 82.754 170.739 83.504 170.459 83.974 C 170.279 84.704 169.989 85.384 169.619 86.054 C 169.529 85.924 169.419 85.834 169.309 85.724 C 169.659 84.834 170.039 83.984 170.339 83.064 C 170.859 79.884 170.619 76.914 168.669 74.224 C 166.889 71.794 163.979 70.394 161.049 69.974 C 157.399 69.444 153.219 70.334 150.269 72.584 C 148.099 74.244 146.869 76.254 145.879 78.754 Z" style="" id="object-31"/><path fill="#FDFEFB" d="M 144.019 86.464 C 144.629 87.034 145.089 87.894 145.629 88.544 C 147.259 90.534 149.539 92.034 151.899 93.004 C 154.879 94.234 159.489 95.084 162.569 93.804 L 161.459 94.624 C 160.569 95.344 159.299 95.634 158.189 95.724 C 154.409 96.034 150.159 94.054 147.349 91.634 C 145.889 90.384 144.169 88.464 144.019 86.464 Z" style="" id="object-32"/><path fill="#FDFEFB" d="M 111.749 158.624 C 113.479 158.524 114.879 159.564 116.169 160.594 C 116.149 160.664 116.129 160.734 116.119 160.804 C 115.829 161.814 115.399 163.114 114.439 163.654 C 113.729 163.784 113.049 163.734 112.379 163.484 C 111.529 163.184 110.659 162.604 110.279 161.754 C 110.049 161.224 110.039 160.584 110.259 160.054 C 110.539 159.364 111.089 158.914 111.749 158.624 Z" style="" id="object-33"/><path fill="#FDFEFB" d="M 143.799 78.074 C 143.949 80.414 144.399 82.634 145.459 84.754 C 147.189 88.184 150.219 90.484 153.839 91.684 C 154.059 91.754 154.269 91.824 154.499 91.884 C 154.719 91.954 154.939 92.014 155.159 92.064 C 155.389 92.114 155.609 92.164 155.839 92.204 C 156.059 92.244 156.289 92.274 156.519 92.304 C 156.749 92.334 156.969 92.364 157.199 92.384 C 157.429 92.394 157.659 92.414 157.889 92.414 C 158.119 92.424 158.349 92.424 158.579 92.424 C 158.809 92.424 159.039 92.414 159.269 92.394 C 159.499 92.374 159.729 92.354 159.949 92.334 C 160.179 92.304 160.409 92.274 160.639 92.234 C 160.859 92.194 161.089 92.154 161.309 92.104 C 161.539 92.054 161.759 91.994 161.979 91.934 C 162.199 91.874 162.419 91.814 162.639 91.744 C 162.859 91.674 163.079 91.594 163.289 91.514 C 163.509 91.424 163.719 91.344 163.929 91.244 C 164.139 91.154 164.349 91.064 164.549 90.954 L 164.889 91.294 C 162.169 92.854 159.649 93.474 156.509 93.124 C 152.509 92.674 148.629 90.624 146.129 87.444 C 143.949 84.654 143.359 81.534 143.799 78.074 Z" style="" id="object-34"/><path fill="#F67F44" d="M 125.819 88.534 C 127.089 87.834 128.549 86.704 129.959 86.394 C 130.419 86.294 130.669 86.424 131.049 86.674 C 132.279 87.624 133.139 88.844 134.019 90.104 C 133.509 90.264 133.009 90.424 132.529 90.654 C 131.659 91.054 129.949 92.254 129.059 92.274 C 128.989 92.084 128.979 92.154 129.059 91.994 C 129.689 90.804 131.819 90.264 132.859 89.454 C 131.279 89.864 129.999 90.594 128.759 91.634 C 128.549 91.364 128.339 91.074 128.089 90.824 C 129.149 89.734 130.639 89.084 131.419 88.254 C 130.719 88.164 129.169 89.284 128.629 89.694 C 128.329 89.924 128.019 90.164 127.759 90.434 L 127.039 89.564 C 128.179 88.544 129.319 87.874 130.569 87.034 C 129.239 86.984 127.509 88.384 126.589 89.224 C 126.319 89.004 126.079 88.764 125.819 88.534 Z" style="" id="object-35"/><path fill="#FDFEFB" d="M 141.969 66.934 C 142.509 67.024 143.029 67.144 143.569 67.294 C 141.559 69.264 140.249 71.444 139.179 74.034 L 139.039 74.234 C 138.679 74.274 138.309 74.094 137.969 73.974 C 138.179 72.994 138.429 72.024 138.769 71.084 C 139.409 69.314 140.199 67.764 141.969 66.934 Z" style="" id="object-36"/><path fill="#FDFEFB" d="M 139.699 66.734 C 140.359 66.714 140.989 66.754 141.639 66.824 L 141.569 66.864 C 138.969 68.344 138.269 70.534 137.519 73.274 C 137.449 73.504 137.399 73.714 137.229 73.904 C 137.079 74.074 136.939 74.194 136.709 74.194 C 136.689 74.174 136.659 74.144 136.629 74.114 C 136.339 73.694 137.329 69.754 137.529 69.104 C 137.939 67.794 138.519 67.354 139.699 66.734 Z" style="" id="object-37"/><path fill="#FDFEFB" d="M 134.269 76.994 C 134.619 77.014 134.899 77.024 135.179 77.244 C 135.289 77.494 135.199 77.794 135.149 78.044 C 134.979 78.954 134.119 83.584 133.759 84.064 C 133.719 84.124 133.629 84.154 133.569 84.194 C 133.279 84.244 132.959 84.354 132.689 84.224 C 132.749 83.094 133.859 78.084 134.269 76.994 Z" style="" id="object-38"/><path fill="#FDFEFB" d="M 114.269 156.684 C 115.389 156.734 116.459 156.874 117.569 157.104 C 117.169 157.744 116.819 158.384 116.499 159.074 C 116.339 159.104 116.279 159.074 116.139 158.994 C 115.709 158.764 115.339 158.414 114.929 158.154 C 114.589 157.944 114.169 157.814 113.849 157.564 C 113.689 157.444 113.679 157.434 113.639 157.214 C 113.759 157.114 113.869 157.024 113.959 156.884 C 113.969 156.854 113.989 156.824 113.999 156.794 L 114.149 156.814 L 114.269 156.684 Z" style="" id="object-39"/><path fill="#FDFEFB" d="M 116.159 151.904 C 117.179 152.004 118.329 152.974 119.299 153.364 C 119.929 153.614 120.669 153.694 121.329 153.874 C 121.379 154.154 121.249 154.304 121.129 154.554 L 120.939 154.734 C 120.589 154.864 120.279 154.824 119.919 154.734 C 118.429 154.364 116.959 153.194 116.159 151.904 Z" style="" id="object-40"/><path fill="#FDFEFB" d="M 138.489 158.774 C 139.279 159.064 140.009 159.654 140.799 160.004 C 141.449 160.294 142.159 160.364 142.839 160.594 C 142.839 160.804 142.609 160.994 142.469 161.154 L 142.149 161.444 C 141.859 161.524 141.579 161.434 141.299 161.334 C 140.139 160.934 139.019 159.864 138.489 158.774 Z" style="" id="object-41"/><path fill="url(#gradient_0)" d="M 169.309 85.724 C 169.419 85.834 169.529 85.924 169.619 86.054 C 168.599 88.174 166.939 90.104 164.889 91.294 L 164.549 90.954 C 164.869 90.704 165.219 90.514 165.539 90.264 C 167.139 88.984 168.279 87.484 169.309 85.724 Z" style="" id="object-42"/><path fill="#F67F44" d="M 174.999 131.704 C 174.869 131.104 174.479 130.424 174.439 129.844 C 174.419 129.624 174.449 129.604 174.589 129.454 C 174.719 129.444 174.729 129.444 174.879 129.474 C 175.499 129.624 175.869 130.184 176.199 130.674 C 176.309 130.764 176.419 130.844 176.509 130.944 C 176.029 131.234 175.509 131.464 174.999 131.704 Z" style="" id="object-43"/><path fill="#9AA9A9" d="M 156.219 122.174 C 156.249 121.684 156.289 121.214 156.399 120.724 C 156.549 121.924 156.909 123.394 156.669 124.584 L 156.539 124.724 C 156.429 124.654 156.349 124.594 156.269 124.494 C 156.099 124.504 156.029 124.514 155.869 124.464 C 155.829 124.354 155.809 124.324 155.789 124.224 C 155.629 123.624 155.909 122.704 156.219 122.174 Z" style="" id="object-44"/><path fill="#243248" d="M 156.219 122.174 C 156.279 122.954 156.289 123.714 156.269 124.494 C 156.099 124.504 156.029 124.514 155.869 124.464 C 155.829 124.354 155.809 124.324 155.789 124.224 C 155.629 123.624 155.909 122.704 156.219 122.174 Z" style="" id="object-45"/><path fill="#F67F44" d="M 183.599 133.634 C 183.819 134.334 183.939 135.054 184.079 135.764 C 183.939 136.174 183.819 136.574 183.609 136.954 C 183.809 135.804 183.749 134.974 183.119 133.964 L 183.599 133.634 Z" style="" id="object-46"/><path fill="#986139" d="M 182.229 139.354 C 182.259 139.364 182.289 139.374 182.309 139.394 C 182.489 139.504 182.569 139.704 182.599 139.904 C 182.639 140.214 182.479 140.404 182.299 140.634 C 181.999 140.484 181.939 140.404 181.829 140.104 C 181.899 139.764 182.009 139.614 182.229 139.354 Z" style="" id="object-47"/><path fill="#986139" d="M 178.629 137.894 C 178.899 137.904 179.049 137.894 179.279 138.054 C 179.359 138.324 179.309 138.404 179.219 138.674 C 178.969 138.634 178.789 138.604 178.559 138.494 C 178.469 138.234 178.539 138.154 178.629 137.894 Z" style="" id="object-48"/></g></svg>